Coordinates
version=1
nRows=27
nColumns=38
inDegrees=no

Units are S.I. units (second, meters, Newtons, ...)
If the header above contains a line with 'inDegrees', this indicates whether rotational values are in degrees (yes) or radians (no).

endheader
time	pelvis_tilt	pelvis_list	pelvis_rotation	pelvis_tx	pelvis_ty	pelvis_tz	hip_flexion_r	hip_adduction_r	hip_rotation_r	knee_angle_r	ankle_angle_r	subtalar_angle_r	mtp_angle_r	hip_flexion_l	hip_adduction_l	hip_rotation_l	knee_angle_l	ankle_angle_l	subtalar_angle_l	mtp_angle_l	lumbar_extension	lumbar_bending	lumbar_rotation	arm_flex_r	arm_add_r	arm_rot_r	elbow_flex_r	pro_sup_r	wrist_flex_r	wrist_dev_r	arm_flex_l	arm_add_l	arm_rot_l	elbow_flex_l	pro_sup_l	wrist_flex_l	wrist_dev_l
4.12	-1.40032	1.46339	-0.586222	0.96337	-0.252363	0.938519	0.381987	-0.035211	-0.288404	0.926994	0.118303	0	0	-0.0247659	-0.181645	-0.363563	0.249372	0.104307	0	0	-0.177899	0.0371017	-0.363562	-0.703691	-0.236644	0.275008	1.03661	0	0	0	-0.204858	-0.406466	0.247725	0.772519	1.06342	0	0
4.13	-1.36133	1.47206	-0.637502	0.962163	-0.256092	0.939066	0.388242	-0.0478472	-0.281856	0.906834	0.120023	0	0	-0.0362281	-0.166041	-0.372168	0.23684	0.0986728	0	0	-0.174205	0.024929	-0.36417	-0.681515	-0.21049	0.27198	0.966798	0	0	0	-0.211946	-0.404819	0.240686	0.77579	1.07048	0	0
4.14	-1.44864	1.45605	-0.546247	0.962973	-0.259255	0.938651	0.385793	-0.0356172	-0.297194	0.875884	0.11445	0	0	-0.0349783	-0.18703	-0.369146	0.248364	0.111928	0	0	-0.17595	0.0478395	-0.378275	-0.655255	-0.210087	0.454451	0.938329	0.851172	0	0	-0.217814	-0.399958	0.226675	0.784731	1.09777	0	0
4.15	-1.43524	1.45341	-0.567424	0.962825	-0.260281	0.938602	0.390076	-0.034865	-0.290043	0.853326	0.109026	0	0	-0.0390593	-0.187818	-0.373152	0.253555	0.116112	0	0	-0.186191	0.0489387	-0.374422	-0.633734	-0.157934	0.231645	0.840299	0	0	0	-0.216311	-0.407365	0.231346	0.803423	1.09683	0	0
4.16	-1.37585	1.44992	-0.63817	0.962967	-0.259137	0.938645	0.393907	-0.0336047	-0.273524	0.833359	0.101613	0	0	-0.0454012	-0.186457	-0.377643	0.26244	0.120132	0	0	-0.205908	0.0465608	-0.36998	-0.604728	-0.134118	0.230212	0.793625	0	0	0	-0.215211	-0.419355	0.231556	0.82973	1.09577	0	0
4.17	-1.81816	1.44941	-0.192745	0.961697	-0.272797	0.935989	0.422695	-0.0282307	-0.307987	0.78925	0.100631	0	0	-0.0151929	-0.202769	-0.384748	0.246784	0.12868	0	0	-0.124641	0.077683	-0.382387	-0.608539	-0.135135	0.215836	0.731357	0	0	0	-0.226544	-0.373007	0.222366	0.777831	1.10768	0	0
4.18	-1.82283	1.44467	-0.188278	0.96134	-0.276839	0.936017	0.419138	-0.0294381	-0.314614	0.758702	0.0979345	0	0	-0.020919	-0.206135	-0.386622	0.246084	0.132868	0	0	-0.123013	0.0848949	-0.388038	-0.590049	-0.119021	0.208085	0.68349	0	0	0	-0.22916	-0.366795	0.214117	0.778503	1.12134	0	0
4.19	-1.5238	1.43876	-0.480971	0.960966	-0.276247	0.938413	0.381475	-0.0395367	-0.315129	0.733527	0.0993551	0	0	-0.0587047	-0.200829	-0.380735	0.250277	0.132611	0	0	-0.175699	0.0744329	-0.397403	-0.558969	-0.088261	0.198254	0.636834	0	0	0	-0.234453	-0.392164	0.214053	0.824252	1.12715	0	0
4.2	-1.54611	1.43583	-0.45883	0.96033	-0.280321	0.938021	0.379048	-0.0409474	-0.318429	0.703313	0.0984868	0	0	-0.0628452	-0.203802	-0.383749	0.249677	0.137519	0	0	-0.169267	0.0807752	-0.408167	-0.549751	-0.11653	0.507943	0.679567	0.633381	0	0	-0.244284	-0.386926	0.206883	0.830872	1.13041	0	0
4.21	-1.56474	1.43501	-0.441335	0.959697	-0.28362	0.937532	0.37917	-0.0429588	-0.315697	0.674766	0.0979387	0	0	-0.0650387	-0.2048	-0.386676	0.250265	0.14193	0	0	-0.166314	0.0847233	-0.410855	-0.536824	-0.105777	0.516576	0.654707	0.628461	0	0	-0.246536	-0.385203	0.207815	0.837631	1.13122	0	0
4.22	-1.57955	1.43438	-0.427088	0.959006	-0.286898	0.937073	0.378488	-0.0450048	-0.311613	0.645866	0.0964723	0	0	-0.0673423	-0.205466	-0.388266	0.250994	0.14646	0	0	-0.16383	0.0882868	-0.413134	-0.523982	-0.0961822	0.52518	0.634212	0.617885	0	0	-0.248227	-0.384302	0.210788	0.844747	1.13174	0	0
4.23	-1.60162	1.43522	-0.403993	0.958116	-0.290333	0.93664	0.378268	-0.0479235	-0.306921	0.615924	0.0935257	0	0	-0.0679802	-0.205226	-0.387268	0.251018	0.149655	0	0	-0.161991	0.0905921	-0.40833	-0.499634	-0.0329498	0.11134	0.508474	0	0	0	-0.243265	-0.387154	0.226662	0.852171	1.12502	0	0
4.24	-1.61485	1.4355	-0.39051	0.957297	-0.293854	0.936078	0.377132	-0.0510785	-0.300629	0.587431	0.0905146	0	0	-0.070838	-0.204611	-0.387936	0.250331	0.153364	0	0	-0.158999	0.0936236	-0.409421	-0.48947	-0.0244435	0.0952767	0.496987	0	0	0	-0.243621	-0.385497	0.23012	0.857068	1.12567	0	0
4.25	-1.61666	1.43485	-0.388583	0.956517	-0.297288	0.935456	0.374144	-0.0537767	-0.292941	0.559112	0.0850049	0	0	-0.0758569	-0.204196	-0.389327	0.249255	0.157848	0	0	-0.155878	0.0972386	-0.416454	-0.496108	-0.0704517	0.512935	0.605211	0.624716	0	0	-0.24935	-0.382509	0.227455	0.863437	1.12653	0	0
4.26	-1.91605	1.4357	-0.096594	0.955291	-0.304124	0.932299	0.408952	-0.0483665	-0.283477	0.527252	0.0752034	0	0	-0.0458555	-0.209154	-0.396691	0.243722	0.164449	0	0	-0.103134	0.11326	-0.409288	-0.49241	-0.060656	0.463808	0.571917	0.653513	0	0	-0.246223	-0.356908	0.231449	0.834917	1.1337	0	0
4.27	-1.94852	1.43648	-0.06256	0.954179	-0.307268	0.931377	0.411171	-0.0517257	-0.273757	0.501165	0.070182	0	0	-0.045016	-0.208216	-0.39561	0.243252	0.168539	0	0	-0.098501	0.115232	-0.408584	-0.484998	-0.052122	0.433034	0.568132	0.681425	0	0	-0.243821	-0.355438	0.234838	0.836083	1.14138	0	0
4.28	-1.94753	1.43639	-0.0632671	0.953214	-0.310453	0.930493	0.409331	-0.0547665	-0.262916	0.477671	0.0675515	0	0	-0.0510675	-0.206945	-0.396578	0.240043	0.173007	0	0	-0.103336	0.121597	-0.396118	-0.293507	-0.0295076	-1.20282	0	0.0108528	0	0	-0.23234	-0.357201	0.252443	0.839963	1.15352	0	0
4.29	-1.95536	1.43739	-0.0534294	0.951871	-0.313473	0.929819	0.407509	-0.0578791	-0.250187	0.452821	0.0669423	0	0	-0.0551642	-0.205351	-0.395988	0.236719	0.176351	0	0	-0.103256	0.122501	-0.392807	-0.283944	-0.0369263	-1.28258	0	0.0260269	0	0	-0.22828	-0.357946	0.258968	0.843693	1.15538	0	0
4.3	-1.97018	1.43893	-0.0369481	0.950472	-0.316449	0.929001	0.407242	-0.0613597	-0.2349	0.430013	0.0674744	0	0	-0.0588715	-0.202926	-0.394964	0.23215	0.178864	0	0	-0.102019	0.123194	-0.390265	-0.273592	-0.0420162	-1.341	0	0.0437614	0	0	-0.224796	-0.358436	0.265647	0.846404	1.15809	0	0
4.31	-1.98562	1.44071	-0.0197081	0.948936	-0.319424	0.928164	0.406772	-0.0648015	-0.21811	0.407757	0.0684794	0	0	-0.0628174	-0.200386	-0.394217	0.22702	0.181045	0	0	-0.10078	0.123359	-0.387526	-0.263414	-0.0462751	-1.38316	0	0.0618996	0	0	-0.221285	-0.358771	0.27124	0.848267	1.16171	0	0
4.32	-1.99842	1.44274	-0.00489266	0.947291	-0.322338	0.927354	0.405918	-0.0683212	-0.20015	0.386532	0.0692233	0	0	-0.066913	-0.197933	-0.393357	0.222374	0.182885	0	0	-0.100168	0.122953	-0.384464	-0.252568	-0.0498255	-1.41187	0	0.0795207	0	0	-0.217368	-0.35896	0.275943	0.849027	1.16656	0	0
4.33	-2.00984	1.44492	0.00867639	0.945509	-0.325232	0.926571	0.404983	-0.0720562	-0.182682	0.367105	0.0694176	0	0	-0.0708787	-0.195756	-0.392413	0.218682	0.184403	0	0	-0.0997395	0.122082	-0.381144	-0.241037	-0.0528474	-1.42989	0	0.0958247	0	0	-0.213237	-0.358794	0.27955	0.848656	1.17246	0	0
4.34	-2.01807	1.44736	0.0192508	0.943598	-0.328117	0.925811	0.403791	-0.0763308	-0.166968	0.349781	0.0694391	0	0	-0.0750119	-0.193702	-0.391617	0.21565	0.186255	0	0	-0.099866	0.120805	-0.377577	-0.229503	-0.0555538	-1.44233	0	0.110674	0	0	-0.208875	-0.358347	0.282239	0.847401	1.17944	0	0
4.35	-2.0226	1.45008	0.0265255	0.941558	-0.330988	0.92506	0.402456	-0.0811375	-0.15296	0.334808	0.0697112	0	0	-0.079381	-0.191756	-0.390722	0.213215	0.188166	0	0	-0.101004	0.119223	-0.373324	-0.217278	-0.0583758	-1.45089	0	0.12413	0	0	-0.203919	-0.357886	0.284509	0.84558	1.18724	0	0
4.36	-2.02536	1.45295	0.0327709	0.939438	-0.333856	0.924304	0.400122	-0.0858782	-0.138976	0.319902	0.0697324	0	0	-0.0835532	-0.190075	-0.389525	0.211411	0.190239	0	0	-0.102316	0.117411	-0.369074	-0.205192	-0.0612981	-1.45637	0	0.13508	0	0	-0.198382	-0.357282	0.287031	0.842446	1.19583	0	0
4.37	-2.02777	1.45584	0.0393246	0.937204	-0.336682	0.923551	0.397185	-0.0904647	-0.125347	0.305518	0.0691406	0	0	-0.0872319	-0.18888	-0.387757	0.210458	0.192413	0	0	-0.103493	0.115504	-0.364385	-0.193217	-0.0643816	-1.45845	0	0.144585	0	0	-0.191922	-0.356664	0.290589	0.837723	1.20626	0	0
4.38	-2.02912	1.45875	0.0452529	0.934844	-0.339474	0.922814	0.393739	-0.0949935	-0.112202	0.291889	0.0680289	0	0	-0.0904992	-0.188065	-0.385037	0.210415	0.194751	0	0	-0.104764	0.113503	-0.359156	-0.180967	-0.067658	-1.45823	0	0.15943	0	0	-0.184795	-0.355404	0.292506	0.831247	1.2256	0	0
